# xmcd
#
# Track frame offsets:
#	225
#	16265
#	32902
#	50420
#	67570
#	84720
#	96292
#	109176
#	120262
#	132319
#	143617
#	155482
#	167411
#	177381
#	189508
#	200412
#	212487
#	223421
#	238371
#	249645
#
# Disc length: 3528 seconds
#
# Revision: 1
# Processed by: cddbd v1.4PL0 Copyright (c) Steve Scherf et al.
# Submitted via: audiograbber 1.80.04
#
DISCID=1b0dc514
DTITLE=Dolly Parton - Most Famous Hits [CD 2)
DYEAR=2001
DGENRE=Country
TTITLE0=Better Walk The Line
TTITLE1=I'll Be Your Baby Tonight
TTITLE2=Silver Threads And Golden Needles
TTITLE3=She's A Lovely Lady
TTITLE4=Break My Mind
TTITLE5=How Can I Keep From Loving You
TTITLE6=From These Arms Of Mine
TTITLE7=Just Another Fool Along The Way
TTITLE8=Happy You, Lonely Me
TTITLE9=I'm No Longer In Your Heart
TTITLE10=Makin' Believe
TTITLE11=Letter To Heaven
TTITLE12=Please Release Me
TTITLE13=Two Little Orphans
TTITLE14=Honky Tonk Angels
TTITLE15=Look What They've Done To My Song, Ma
TTITLE16=All I Have Is To Dream
TTITLE17=Crystal Chandeliers
TTITLE18=The Tennessee Waltz
TTITLE19=It's A Heartache
EXTD=
EXTT0=
EXTT1=
EXTT2=
EXTT3=
EXTT4=
EXTT5=
EXTT6=
EXTT7=
EXTT8=
EXTT9=
EXTT10=
EXTT11=
EXTT12=
EXTT13=
EXTT14=
EXTT15=
EXTT16=
EXTT17=
EXTT18=
EXTT19=
PLAYORDER=
